<svg xmlns="http://www.w3.org/2000/svg" width="360" height="360" fill="none" viewBox="0 0 360 360"><path fill="#a07553" fill-rule="evenodd" d="M180 360c99.411 0 180-80.589 180-180S279.411 0 180 0 0 80.589 0 180s80.589 180 180 180m1-57c69.036 0 125-55.964 125-125S250.036 53 181 53 56 108.964 56 178s55.964 125 125 125" clip-rule="evenodd"/><path fill="#a07553" d="M110 175.375q0-2.056.768-3.212.768-1.286 2.415-2.184l1.866-.9q2.853-1.413 3.841-4.754.988-3.469.988-8.479 0-18.373 9.768-27.109Q139.413 120 154.449 120q.988 0 1.647.899.768.771.768 1.928v18.886q0 1.156-.659 1.927-.658.771-1.426.9-4.28.642-6.805 1.927t-3.841 4.111q-1.208 2.827-1.208 7.966 0 8.35-2.634 14.261-2.524 5.91-6.475 7.195 3.841 1.285 6.475 7.58 2.634 6.168 2.634 13.876 0 5.139 1.208 7.966 1.317 2.826 3.841 4.111t6.805 1.927q.768.129 1.426.9.659.77.659 1.927v18.886q0 1.157-.768 1.928-.659.899-1.647.899-15.036 0-24.803-8.737t-9.768-27.109q0-5.14-.988-8.479-.988-3.34-3.841-4.754l-1.866-.9q-1.647-.898-2.415-2.055-.768-1.285-.768-3.341zm140 9.25q0 2.056-.768 3.341-.768 1.156-2.415 2.055l-1.866.9q-2.853 1.413-3.841 4.754t-.988 8.479q0 18.373-9.768 27.109Q220.587 240 205.551 240q-.988 0-1.756-.899-.659-.771-.659-1.928v-18.886q0-1.156.659-1.927.658-.771 1.426-.9 4.28-.642 6.805-1.927t3.732-4.111q1.317-2.827 1.317-7.966 0-7.708 2.634-13.876 2.634-6.295 6.475-7.58-3.951-1.285-6.585-7.195-2.524-5.91-2.524-14.261 0-5.139-1.317-7.966-1.208-2.826-3.732-4.111t-6.805-1.927q-.768-.129-1.426-.9-.659-.77-.659-1.927v-18.886q0-1.157.659-1.928.768-.899 1.756-.899 15.036 0 24.803 8.737t9.768 27.109q0 5.01.988 8.479.988 3.34 3.841 4.754l1.866.9q1.647.898 2.415 2.184.768 1.156.768 3.212z"/></svg>