<svg xmlns="http://www.w3.org/2000/svg" width="1019" height="360" fill="none" viewBox="0 0 1019 360"><path fill="#a07553" fill-rule="evenodd" d="M180 360c99.411 0 180-80.589 180-180S279.411 0 180 0 0 80.589 0 180s80.589 180 180 180m1-57c69.036 0 125-55.964 125-125S250.036 53 181 53 56 108.964 56 178s55.964 125 125 125" clip-rule="evenodd"/><path fill="#a07553" d="M110 175.375q0-2.056.768-3.212.768-1.286 2.415-2.184l1.866-.9q2.853-1.413 3.841-4.754.988-3.469.988-8.479 0-18.373 9.768-27.109Q139.413 120 154.449 120q.988 0 1.647.899.768.771.768 1.928v18.886q0 1.156-.659 1.927-.658.771-1.426.9-4.28.642-6.805 1.927t-3.841 4.111q-1.208 2.827-1.208 7.966 0 8.35-2.634 14.261-2.524 5.91-6.475 7.195 3.841 1.285 6.475 7.58 2.634 6.168 2.634 13.876 0 5.139 1.208 7.966 1.317 2.826 3.841 4.111t6.805 1.927q.768.129 1.426.9.659.77.659 1.927v18.886q0 1.157-.768 1.928-.659.899-1.647.899-15.036 0-24.803-8.737t-9.768-27.109q0-5.14-.988-8.479-.988-3.34-3.841-4.754l-1.866-.9q-1.647-.898-2.415-2.055-.768-1.285-.768-3.341zm140 9.25q0 2.056-.768 3.341-.768 1.156-2.415 2.055l-1.866.9q-2.853 1.413-3.841 4.754t-.988 8.479q0 18.373-9.768 27.109Q220.587 240 205.551 240q-.988 0-1.756-.899-.659-.771-.659-1.928v-18.886q0-1.156.659-1.927.658-.771 1.426-.9 4.28-.642 6.805-1.927t3.732-4.111q1.317-2.827 1.317-7.966 0-7.708 2.634-13.876 2.634-6.295 6.475-7.58-3.951-1.285-6.585-7.195-2.524-5.91-2.524-14.261 0-5.139-1.317-7.966-1.208-2.826-3.732-4.111t-6.805-1.927q-.768-.129-1.426-.9-.659-.77-.659-1.927v-18.886q0-1.157.659-1.928.768-.899 1.756-.899 15.036 0 24.803 8.737t9.768 27.109q0 5.01.988 8.479.988 3.34 3.841 4.754l1.866.9q1.647.898 2.415 2.184.768 1.156.768 3.212zM471.4 53.84q.4 3.44-.24 6.24-.56 2.72-1.2 4.56a25.1 25.1 0 0 1-3.68 6.48 30.5 30.5 0 0 1-5.12 5.04 30.8 30.8 0 0 1-5.68 3.6q-2.96 1.44-5.52 2-.64.16-1.36.32-.64.08-.56-.08-.16-.16.48-.48t1.2-.56a50 50 0 0 0 8.4-5.12 29.5 29.5 0 0 0 6.72-7.12 26.6 26.6 0 0 0 2.4-4.4 21.6 21.6 0 0 0 1.44-5.12q.4-2.64 0-5.36-.4-2.8-1.84-5.44-1.84-3.36-4.72-5.44a20.2 20.2 0 0 0-6.32-3.2 26.6 26.6 0 0 0-7.12-1.28q-3.6-.24-6.96.32-.48.08-.56.08a.6.6 0 0 1-.24-.08q0-.16.24-.24.32-.08.56-.24 1.44-.64 3.76-1.04 2.4-.48 5.28-.32t6.08 1.12q3.28.88 6.56 3.04t5.36 5.68q2.16 3.44 2.64 7.04m-5.04-3.36q.72 1.92.8 3.84.16 1.92-.16 3.76a15.5 15.5 0 0 1-.88 3.44 14.4 14.4 0 0 1-1.36 2.88q-.16.16-.4.56a8 8 0 0 0-.48.72q-.24.32-.48.56-.24.16-.32.08-.08 0 0-.32.16-.32.24-.72.16-.4.32-.72l.24-.48q.72-1.36.96-3.28.24-2 .08-4.08a16.5 16.5 0 0 0-.64-4q-.48-2-1.44-3.28-.32-.48-1.28-1.44-.96-1.04-2.56-2.16t-3.76-2.08-4.88-1.2a36 36 0 0 0-5.36-.08q-2.64.08-5.04.48-2.32.4-4.16.96-1.76.56-2.64 1.04-.4.24-.8.32-.32.08-.32 0-.08-.16.16-.4l.4-.4q1.28-1.28 3.84-2.4 2.64-1.12 5.76-1.76 3.2-.72 6.48-.72 3.36-.08 6 .8 1.68.56 3.44 1.52a15.7 15.7 0 0 1 3.36 2.16 18.4 18.4 0 0 1 2.88 2.88 12.8 12.8 0 0 1 2 3.52M439 79.76q.64-3.6 1.68-7.28 1.12-3.76 2.24-7.6 1.12-3.6 2.08-7.36t1.12-8.08v-.4h.16q.08 0 .24.48.88 2 .64 5.36-.16 3.28-.88 6.88a93 93 0 0 1-1.68 6.88q-.88 3.28-1.36 5.2-.4 1.44-.72 2.72-.32 1.2-.72 2.56 2.88-1.92 5.6-3.84a59 59 0 0 0 5.2-4.16 35 35 0 0 0 4.24-4.72 21.4 21.4 0 0 0 3.04-5.36q1.84-4.8-.16-8.64-1.92-3.92-7.36-5.6-4.08-1.2-8.24-1.2.72 2.72.64 5.92 0 3.2-.64 5.36a108 108 0 0 1-2.72 8.72 193 193 0 0 1-3.2 8.24l-.4.8q-.32.64-.56.56-.16 0-.08-.64.08-.72.08-.88.08-.96.32-2.32t.48-2.8.56-2.8q.32-1.44.72-2.4a82 82 0 0 0 .64-2.56q.48-2 .96-4.64t.88-5.44q.4-2.88.56-5.12-.64 0-.96.08.08 3.28-.64 6.72a72 72 0 0 1-1.68 6.88 208 208 0 0 1-2.24 6.96 72 72 0 0 0-2 6.96 44 44 0 0 0-.96 5.6 44 44 0 0 0-.24 5.92q.08 2.96.72 5.84a21 21 0 0 0 1.92 5.2q.24.4 0 .32-.16 0-.4-.16-2.16-2.48-3.2-5.44t-1.28-6.08a33 33 0 0 1 .16-6.48q.48-3.28 1.2-6.4.8-3.36 1.84-6.72a801 801 0 0 0 2-6.56q.96-3.28 1.76-6.32a44 44 0 0 0 1.28-6.08q-2.32.32-4.48.96-2.16.56-4.16 1.2-.64.16-.72 0t.16-.32q.32-.16.4-.24 2.24-1.36 4.96-2.24a26.5 26.5 0 0 1 5.76-1.28q2.96-.4 6.08-.16 3.12.16 6.16 1.04 3.2.96 5.28 2.96t3.04 4.56q1.04 2.48.88 5.36-.16 2.8-1.44 5.44a27 27 0 0 1-4.24 6.16 40.7 40.7 0 0 1-5.76 5.04 60 60 0 0 1-6.72 4.32 223 223 0 0 1-7.04 3.68q-.16.08-.88.4-.72.24-.8.08 0-.08.4-.4.48-.4.96-.72 1.2-.64 1.52-1.92m5.36.96a80 80 0 0 0 2.96-1.68q1.84-1.04 3.52-2t2.88-1.6q1.28-.64 1.36-.48.08.08-.32.56a12 12 0 0 1-.88.96l-1.12.96q-.56.48-.88.72a35 35 0 0 1-3.2 2 34 34 0 0 1-3.12 1.6q-1.36.64-2.8 1.12-1.36.48-2.8 1.04a36 36 0 0 0-.72 2.24q-.24 1.12-.48 2.08a4.5 4.5 0 0 1-.24.8q-.08.4-.16.4-.16-.08-.24-.56v-2.56q0-1.04.08-1.76a5 5 0 0 0-1.12.48q-.48.32-.4.96 0 2.4.24 4.32a21.5 21.5 0 0 0 1.44 5.2q.08.16.16.4.16.24.08.32-.16.08-.72-.32a23 23 0 0 1-1.52-2.16q-.64-1.12-1.04-3.36-.16-.72-.24-1.92 0-1.2.08-2.24 0-.64.24-1.12t1.04-.88q.48-.24 1.6-.72 1.2-.56 2.48-1.12t2.32-1.04q1.12-.48 1.52-.64M479.104 96v.4q-.321 0-.48-.4-1.12-2.88-.96-6.16t1.12-6.72a45 45 0 0 1 2.56-6.88 91 91 0 0 1 3.6-6.8q-2.16-1.44-3.6-3.6a35.6 35.6 0 0 1-2.4-4.72 50 50 0 0 1-2.16-6q-.88-3.04-1.68-5.92a96 96 0 0 0-1.68-5.44q-.88-2.64-2.08-4.72 0-.32.08-.24 2.48 1.76 3.84 4.32a26.8 26.8 0 0 1 2.32 5.52 94 94 0 0 1 1.76 6.16 38 38 0 0 0 2.08 6 35 35 0 0 0 1.92 3.76 18.8 18.8 0 0 0 2.72 3.2l1.04-1.68q-.56-.72-.88-1.28-.24-.64 0-.8.16 0 .56.32.4.24.88.8.8-.88 1.2-1.76a47 47 0 0 1-2.56-5.52q-1.04-2.88-2-5.92a110 110 0 0 0-1.68-4.96q-.88-2.4-2.48-5.2a.53.53 0 0 0-.24-.24q-.081-.16 0-.24.16-.16.56.08 1.68.72 2.96 2.72a25 25 0 0 1 2.4 4.24 41 41 0 0 1 1.76 4.64q.8 2.24 1.28 3.6l1.68 4.4a771 771 0 0 0 8.56-12.8q4.16-6.24 6.24-12.24l.16-.4q.16-.16.16.24.08.32.08.4-.4 4.56-2.4 8.96t-4.8 8.8a158 158 0 0 1-5.92 8.72 128 128 0 0 0-5.92 8.88 66 66 0 0 0-3.28 6.08 61 61 0 0 0-2.64 6.48 40 40 0 0 0-1.52 6.32q-.48 3.04-.16 5.6m15.84-20.96a237 237 0 0 1-2.56 4q-1.36 2-2.8 3.92a373 373 0 0 1-2.64 3.68q-1.28 1.76-2.32 3.2a7 7 0 0 1-.72.88q-.32.24-.4.16-.16 0 0-.48t.32-.88a74 74 0 0 1 6.4-12.64q3.92-6.08 8-12.24 2.48-3.84 5.04-7.68 2.56-3.92 4.48-8.96.16-.4.08-.48 0-.08.16-.08.16.08.16.32v.48q0 1.76-.72 4t-1.92 4.8q-1.2 2.48-2.64 5.12a111 111 0 0 1-2.96 4.96q-1.44 2.4-2.8 4.48a192 192 0 0 0-2.16 3.44m7.6-19.12a211 211 0 0 1-6.16 8.96 156 156 0 0 1-6.64 8.56q-.16.16-.72.8-.56.56-.8.4-.16-.16.08-.8.32-.72.48-.96.56-1.12 1.36-2.56a85 85 0 0 1 1.68-3.04q.88-1.52 1.76-2.96.96-1.44 1.68-2.48.32-.48 1.28-2 .96-1.6 2.16-3.68 1.2-2.16 2.56-4.64a105 105 0 0 0 2.48-4.8 87 87 0 0 0 1.92-4.4q.8-2.08.88-3.28.159-.8.24-.8.159 0 .24.4.08.32.16.48.32 1.68 0 3.92a32 32 0 0 1-1.04 4.64 29.4 29.4 0 0 1-1.68 4.56q-.96 2.16-1.92 3.68m-21.04-9.12q.879 2.96 1.68 6.32a78 78 0 0 1 1.44 6.4q.08.16 0 .56 0 .32-.16.48-.16.08-.48-.24t-.4-.48a14 14 0 0 1-.88-1.44q-.48-.88-.88-1.84l-.8-1.92-.56-1.68q-.24-.8-1.04-2.72a44 44 0 0 0-1.76-4.16q-.96-2.16-2.08-4.08-1.041-1.92-1.92-2.64-.48-.48-.32-.48.08-.08.32 0t.4.16q1.28.4 2.48 1.28 1.28.88 2.24 2 1.04 1.12 1.68 2.32.72 1.12 1.04 2.16m.48 45.04a37 37 0 0 0-.48 2.72q-.08 1.12-.08 2v.4q0 .24-.24.24-.16 0-.4-.24a1 1 0 0 1-.24-.4l-.32-.8a4.2 4.2 0 0 1-.24-.88q-.081-.56 0-1.36.08-.88.32-2.16.24-1.04.72-2.56t1.04-2.88q.56-1.44 1.04-2.32.56-.88.88-.72.08.08 0 .56 0 .48-.16 1.12l-.32 1.12q-.16.56-.24.8a51 51 0 0 0-.72 2.72q-.24 1.28-.56 2.64m36.901-22.48a38.4 38.4 0 0 0-.4 5.44q0 2.64.4 4.96t1.12 4.24q.8 1.84 2 3.12 1.52 1.6 3.92 2.32 2.48.64 5.52.24a66 66 0 0 1 1.84-6q1.12-2.88 2.08-5.6 1.04-2.72 1.76-5.36t.72-5.2q0-.24.08-.24t.16.24q.16.24.16.32a13.5 13.5 0 0 1 .56 6q-.32 2.96-1.36 6.08a92 92 0 0 1-2.24 6.4 46 46 0 0 0-2.08 6.64q-.4 1.52-.48 3.52a22 22 0 0 0 .24 4.16q.4 2.16 1.28 4.24a12 12 0 0 0 2.64 3.68q.08.16.24.32l.08.08h-.24q-.08 0-.16-.08-2.16-1.44-3.6-3.28a15 15 0 0 1-2.08-3.84 16.5 16.5 0 0 1-.8-3.92q-.08-1.92.24-3.52-2.4.56-4.8.16a14.7 14.7 0 0 1-4.32-1.44q-.4-.16-.88-.64-.4-.48-.32-.56l1.2.24q1.28.16 2.8.4 1.6.16 3.12.32 1.6.08 2.32 0 .24-.08.48-.08.32-.08.72-.24 0-.4.08-.72.08-.4.24-.8-2.8.64-5.44.16a9.95 9.95 0 0 1-4.72-2.24 11.4 11.4 0 0 1-2.72-3.44 23.3 23.3 0 0 1-1.52-4.48 30 30 0 0 1-.56-4.96q-.08-2.64.16-5.2.32-4.08 1.6-8.24t3.36-7.68q2.16-3.6 5.04-6.16 2.96-2.64 6.64-3.68 1.68-.48 3.6-.4t3.6.72a8.1 8.1 0 0 1 2.88 1.84q1.28 1.12 1.6 2.88a6.5 6.5 0 0 1-.32 3.76 10.1 10.1 0 0 1-2 3.12q-1.28 1.28-2.88 1.84t-3.04-.08q-.56-.16-.24-.32.16-.08.24 0t.24.08q.96.16 2.16-.4a6.9 6.9 0 0 0 2.16-1.6 7.3 7.3 0 0 0 1.6-2.4q.64-1.44.4-2.88a4.3 4.3 0 0 0-1.04-2.08q-.72-.88-1.92-1.44t-2.72-.72q-1.44-.16-3.12.16-2.96.56-5.52 2.72-2.56 2.08-4.56 5.2-2 3.04-3.36 6.8a35 35 0 0 0-1.84 7.52m6.32 26.4q1.12.16 1.28.24t-1.2.08q-2.24 0-4.56-.72a18 18 0 0 1-4.24-2q-2-1.36-3.6-3.28a13.4 13.4 0 0 1-2.4-4.24q-1.76-5.04-2.08-9.6a41.7 41.7 0 0 1 .4-9.28q.4-2.48 1.28-5.68t2.4-6.56a45 45 0 0 1 3.92-6.64q2.32-3.28 5.6-6 3.44-2.88 7.68-3.76 4.24-.96 8.08-.32t6.8 2.8q2.96 2.08 3.92 5.2.08.16.24.64t0 .56-.32-.32-.56-.88q-3.36-4.56-7.6-5.76t-8.4-.24q-4.08.96-7.76 3.68-3.6 2.64-5.76 5.92-3.76 5.52-5.6 12.08a46 46 0 0 0-1.76 13.2q.08 3.28.72 6.64t2.32 6.56q1.6 3.12 4.72 5.2 3.2 2.08 6.48 2.48m-11.36-30.32a43 43 0 0 1 1.92-8.16q1.36-4.08 3.6-7.36a24 24 0 0 1 5.68-5.68q3.36-2.4 7.92-3.36 1.52-.32 3.44-.24 2 0 3.92.72a11.3 11.3 0 0 1 3.68 2q1.76 1.36 2.88 3.76 1.04 2.32.72 4.64-.24 2.24-1.28 4.08a9.6 9.6 0 0 1-2.48 2.96q-1.44 1.2-2.88 1.36a2.1 2.1 0 0 1-.64.08q-.32-.08-.32-.24t.08-.08q.08 0 .88-.32.56-.24 1.28-.8a7 7 0 0 0 1.44-1.6q.72-.96 1.28-2.24a9.4 9.4 0 0 0 .72-2.8 6.5 6.5 0 0 0-.4-3.04 7.35 7.35 0 0 0-1.68-2.56 9.1 9.1 0 0 0-2.48-2 9 9 0 0 0-2.96-1.04q-4.72-.72-8.56 1.28-3.84 1.92-6.8 5.36-2.96 3.36-4.96 7.6-2 4.16-3.04 7.92 0 .08-.16.56t-.32 1.04-.32 1.04q-.08.4-.16.4t-.16-.4v-1.04q.08-.64.08-1.12.08-.56.08-.72m27.44 28.24q-.48 1.76-1.44 4.4-.88 2.72-1.6 4.96-.24.64-.4.64-.32 0-.4-.32v-.4a22 22 0 0 1-.08-4.16q.16-1.92.64-3.84t1.12-3.84q.72-1.92 1.44-4.08.96-2.8 1.76-5.44.8-2.72.96-6.08v-.4q.08-.08.24-.08l.24.48q.8 1.68.64 4.16a29 29 0 0 1-.64 5.12 46 46 0 0 1-1.36 5.04q-.72 2.4-1.12 3.84m.24-12.72a170 170 0 0 1-2.48 6.32 141 141 0 0 1-2.8 6.32q-.08.08-.32.56-.16.4-.4.32-.16-.08-.16-.48v-.72q0-.72.16-1.76.16-1.12.4-2.16.24-1.12.48-2.16.32-1.04.64-1.76.16-.48.72-2.56.56-2.16 1.12-4.64a61 61 0 0 0 .88-4.96q.32-2.4 0-3.6-.16-.4 0-.56.16 0 .24.24l.32.32q.72 1.12 1.12 2.64.4 1.44.48 3.04a14.4 14.4 0 0 1 0 3.04q-.08 1.44-.4 2.56m-4.72 23.6a21 21 0 0 0 2.32 3.76q.24.24.08.4a.4.4 0 0 1-.48 0 1 1 0 0 1-.24-.16q-1.12-.64-1.84-1.28t-1.44-2.48q-.24-.64-.48-1.68a23 23 0 0 1-.24-1.92 17 17 0 0 1-.08-1.52q.08-.64.32-.56.4 0 .64.96l.4 1.2q.32.88.48 1.68t.56 1.6m28.099-66.4q-.32-.72-.16-.72.24 0 .56.4l.4.4 1.76 2.64q.96 1.36 1.84 3.28t1.6 4.48q.72 2.48 1.12 5.92.48 3.92.16 7.76a76 76 0 0 1-.88 7.6q-.08.16-.16.8t-.32.64q-.16 0-.32-.56-.16-.64-.16-.88a44 44 0 0 1-.32-2.08q-.16-1.2-.32-2.48a387 387 0 0 0-.16-2.56v-2.24q0-.32-.08-1.36 0-1.12-.08-2.56t-.32-3.12a68 68 0 0 0-.4-3.44 39 39 0 0 1 0 4.96q-.16 2.48-.4 5.04-.24 2.48-.4 5.04a40 40 0 0 0 0 5.04q.24 4.96 2 10.08t5.6 8.72q.48.48.4.48-.16.08-.56-.16-2.8-1.6-4.64-3.84a22 22 0 0 1-3.04-4.88 28 28 0 0 1-1.68-5.44 35 35 0 0 1-.64-5.76.9.9 0 0 0-.08-.4v-.48a92 92 0 0 1-3.6 8.8 298 298 0 0 1-3.84 8.16q-1.84 3.92-3.52 7.44-1.6 3.44-2.56 6.4-.16.4-.24.4-.16 0-.16-.24v-.32q.08-3.76 1.52-7.84 1.44-4.16 3.36-8.56a631 631 0 0 1 4.16-9.12 92 92 0 0 0 3.76-9.6q.96-3.12 1.6-6.48.72-3.36.88-6.72.159-3.36-.24-6.56-.4-3.28-1.44-6.08m9.92 46.08a14.4 14.4 0 0 0 2.32 3.44q.56-3.36 2.16-6.64a82 82 0 0 1 3.6-6.72q2.079-3.36 4.32-6.72t4.16-6.8q1.44-2.48 2.4-5.36a28.4 28.4 0 0 0 1.44-5.84q.48-3.04.24-6a17.8 17.8 0 0 0-1.2-5.6q-.24-.4-.08-.56t.48.24q.399.32.48.48.96 1.36 1.52 3.6.64 2.16.88 4.88.32 2.64.32 5.6t-.24 5.92q-.321 3.92-1.2 8.56-.8 4.64-2 8.48-.08.16-.32.72-.16.56-.4.56-.16-.08-.24-.64a9 9 0 0 1-.08-.8v-2.08l.16-2.56q.08-1.36.16-2.56.16-1.28.32-2.16.08-.48.24-2.16.24-1.76.4-3.92-.96 2.24-1.52 4a47 47 0 0 0-.96 3.44 58 58 0 0 0-.72 3.52q-.24 1.84-.48 4.32a54 54 0 0 0-.24 5.2q.08 2.72.56 5.36.56 2.64 1.52 5.2a20.3 20.3 0 0 0 2.64 4.56q.32.48.16.56t-.4-.16q-2.56-2.08-4.08-4.64-1.44-2.64-2.16-5.52a27 27 0 0 1-.8-5.84q0-3.04.32-5.92.159-1.04.24-2.08.16-1.04.32-2.16a275 275 0 0 1-3.68 5.76 105 105 0 0 0-3.44 5.6 67 67 0 0 0-2.88 5.44q-1.2 2.64-1.84 5.28l-.16.4q-.16 0-.16-.32v-1.68q0-.64.16-1.28l-1.12-.56a11 11 0 0 1-.96-.72q-.4-.4-.88-.96a14 14 0 0 1-.88-1.44 17 17 0 0 1-.8-1.92 50 50 0 0 1-.72-2.16q-.24-1.12-.32-1.84 0-.8.24-.8.16 0 .32.32.24.24.48.64t.4.8.24.56l.8 1.92zm1.68-14.8a154 154 0 0 1 3.6-6.64q1.92-3.28 3.04-5.2a139 139 0 0 1 4-6.72 391 391 0 0 0 3.6-5.92 9 9 0 0 1 .32-.72q.24-.32.4-.16.16 0 .08.4l-.16.8a34.9 34.9 0 0 1-4.08 10.88 306 306 0 0 1-6.08 10.32 56 56 0 0 1-2 2.96 26 26 0 0 0-1.44 2.24 13 13 0 0 0-.96 2.32q-.4 1.28-.56 3.28a16 16 0 0 1 .72-1.68q.4-.8.8-1.52a90 90 0 0 1 5.04-7.68q2.799-3.84 5.52-7.2.16-.16.56-.64.48-.56.64-.48t-.08.72l-.24.96a69 69 0 0 1-1.04 2.16q-.56 1.28-1.28 2.64-.64 1.28-1.36 2.56-.72 1.2-1.28 2-.32.48-1.36 1.92t-2.24 3.6-2.4 4.88a28.7 28.7 0 0 0-1.68 5.76q-.24-.48-.64-1.2-.32-.72-.8-2.32a41.6 41.6 0 0 1-1.6-10.16 349 349 0 0 1 0-10.64 149 149 0 0 0 0-6.88q0-3.44-1.12-7.28-.081-.32 0-.48.159 0 .48.48 1.44 1.52 2.16 4.48.72 2.88 1.04 6.16.32 3.2.32 6.32.08 3.04.08 4.88zm-21.04-6.96q1.36-4.16 3.04-8.4a284 284 0 0 0 3.04-7.6l.32-.8q.24-.4.4-.32.16 0 .08.56v.88q-.72 6.56-2.88 13.04a185 185 0 0 1-4.8 12.8 205 205 0 0 1-3.44 8.08q-1.84 4-3.04 8.72-.16.4-.16.48.08.08 0 .08-.24-.16-.24-.72-.4-2.4.48-6a74 74 0 0 1 2.24-7.52q1.36-3.92 2.8-7.44 1.44-3.6 2.16-5.84m-3.44 19.04q2-4.56 4.32-9.36a810 810 0 0 1 4.48-9.28q.08-.24.4-.88.399-.64.72-.56.16 0 .08.72-.081.72-.24 1.04-.24 1.12-.64 2.72a53 53 0 0 1-.96 3.2 75 75 0 0 1-1.04 3.2 36 36 0 0 1-1.04 2.56q-.24.48-.88 2.08-.561 1.52-1.44 3.68-.8 2.16-1.76 4.64a562 562 0 0 0-1.68 4.64 616 616 0 0 0-1.44 3.92q-.56 1.68-.64 2.4-.16.8-.32.8t-.24-.32q0-.32-.08-.48-.4-.96-.4-2.8.08-1.84.48-3.92t.96-4.24q.64-2.16 1.36-3.76m47.68-6.88q-.4 3.6-1.28 7.2-.801 3.6-1.44 6.4-.321 1.04-.48.96-.16 0-.24-.32 0-.4-.08-.8a40 40 0 0 1 .16-10.72q.8-5.36 1.76-10.96.64-3.36 1.04-6.88.399-3.6 0-7.68 0-.32.16-.48.16 0 .16.24a.52.52 0 0 0 .24.24q1.2 1.76 1.36 4.88a43 43 0 0 1 0 6.4q-.24 3.36-.72 6.48-.4 3.12-.64 5.04m-36.24-30.56a26 26 0 0 0-.48-3.12q-.24-1.44-.64-2.96a.9.9 0 0 1-.08-.4q0-.24.08-.24.24 0 .48.24l.32.32q.879 1.2 1.44 2.4.56 1.12.72 3.76.08 1.04 0 2.56a24 24 0 0 1-.32 2.88q-.16 1.36-.48 2.32-.24.96-.48.88-.16 0-.24-.4-.08-.48-.16-1.04v-4.56q0-1.28-.16-2.64m29.28-1.04q-.08-1.44-.32-2.72a17 17 0 0 0-.56-2.64 3 3 0 0 1-.16-.4q0-.24.16-.16l.24.24.32.16.16.16q.88 1.12 1.36 2.16.56 1.04.64 3.44 0 .88-.24 2.24a21 21 0 0 1-.48 2.64q-.24 1.2-.64 2.08-.32.8-.64.64-.16-.08-.16-.48v-.96q0-.56.08-1.04t.08-.72q.16-1.28.16-2.4.08-1.12 0-2.24m2.8 47.36q.48 1.36 1.04 2.48l1.28 2.24q.08.08.16.32.08.16-.08.16a.9.9 0 0 1-.4-.08 1 1 0 0 0-.24-.16 1 1 0 0 1-.24-.16q-1.12-.88-1.84-1.68t-1.44-2.88q-.24-.8-.48-2a19 19 0 0 1-.32-2.32q-.081-1.12 0-1.92.08-.8.4-.8.08 0 .24.4.159.32.24.8.159.4.24.88.159.4.24.56.4 1.12.64 2.16t.56 2m44.503-49.84q.56-.4.48 0-.08.32-.24.56a6.6 6.6 0 0 1-1.92 1.92 10 10 0 0 1-2.48 1.28q-1.28.48-2.56.72t-2.24.24q-2.48 0-5.12-.48t-5.28-1.04q-.16 0-.56-.16t-.4-.32q-.16-.24.24-.4.48-.16.64-.16.56-.16 1.44-.24a23 23 0 0 1 2-.24q1.04-.08 1.92-.08h1.6a40 40 0 0 0 3.6.16q1.92 0 3.6-.16a16.3 16.3 0 0 0 3.04-.56q1.44-.4 2.24-1.04m1.12-2.64q.4-.16.24.08t-.24.32q-2.08 1.84-4.56 2.32t-5.2.4q-2.64-.16-5.52-.48a29 29 0 0 0-5.68-.24q-1.68.08-3.52.64t-3.52 1.6q-1.6.96-2.96 2.56-1.28 1.52-2 3.52-.16.32-.24.32l-.08-.08v-.48q.48-2.88 1.76-4.88t3.04-3.2a11.6 11.6 0 0 1 3.84-1.84 18.7 18.7 0 0 1 4.16-.64q2.88-.08 5.6.24 2.8.24 5.36.48 2.64.24 5.04.24 2.4-.08 4.48-.88m-26.32 6.24q.16.24-.48.8t-.96.72q-.64.48-1.2.96-.56.4-1.04 1.04-.64.72-1.12 1.44-.4.72-.8 1.6-.16.56-.32.56-.08 0-.08-.56v-.56q.16-1.2.48-2.16t1.12-2q.32-.48 1.04-.88a14 14 0 0 1 1.52-.8q.72-.32 1.28-.4t.56.24m21.6 1.76q.4-.16.32.08 0 .16-.16.32-1.04 1.2-3.04 1.76-1.92.56-4.16.8a42 42 0 0 1-4.48.08q-2.16-.08-3.6-.08.48 1.6.4 3.92 0 2.24-.4 4.88a62 62 0 0 1-.88 5.2q-.56 2.64-1.12 4.96 2.16.16 4.24.48 2.08.24 4 .4 1.92.08 3.68 0a13 13 0 0 0 3.44-.8q.4-.16.4.08t-.16.4q-1.92 1.92-4.24 2.4t-4.88.32a60 60 0 0 1-5.2-.56 29.3 29.3 0 0 0-5.28-.32q-1.68.08-3.36.56t-3.28 1.44a15 15 0 0 0-2.88 2.4q-1.28 1.36-2.08 3.28-.08.32-.24.32t-.16-.24q0-.32.08-.48.4-2.32 1.36-3.84a11 11 0 0 1 2.32-2.64q1.36-5.76 3.04-11.52 1.76-5.76 2.88-10.88h-.56q-.4-.08-.4-.24t.24-.32l.48-.32q3.36-1.6 6.88-1.68a54.5 54.5 0 0 1 7.2.16l4.64.32q2.4.16 4.96-.64m-17.6 2.96a44 44 0 0 1 0 3.76q-.08 1.76-.48 3.12-.72 2.88-1.6 6a74 74 0 0 1-2 6.08q.32-.08.72-.08h.8l1.2-3.76a97 97 0 0 0 2-7.28q.96-3.76 1.2-7.84zm-3.44-.08q-.64 4.8-2.32 9.84t-3.04 10.32q.64-.24 1.12-.4.56-.24 1.04-.4.4-1.6.8-3.04.4-1.52.8-2.64.16-.48.56-1.84t.88-3.28.96-4.16.72-4.4zm18.56 21.76q.4-.32.32.08 0 .32-.16.48a7.5 7.5 0 0 1-1.68 2 9 9 0 0 1-2.08 1.44q-1.12.48-2.32.8-1.12.24-2 .16a48 48 0 0 1-5.2-.64 280 280 0 0 1-5.2-1.12q-.16-.08-.56-.16-.32-.16-.32-.4-.08-.16.24-.32.4-.24.56-.24a8 8 0 0 1 1.36-.24l1.76-.16a9.7 9.7 0 0 1 1.76 0q.88 0 1.44.08 1.44.16 3.12.16 1.76 0 3.44-.24a24 24 0 0 0 3.2-.64q1.44-.4 2.32-1.04m1.76 15.04q.16-.08.16.08a.7.7 0 0 1-.08.32q-1.76 1.92-3.92 2.4a17 17 0 0 1-4.4.4 37 37 0 0 1-4.72-.64q-2.4-.48-4.72-.48-2.96-.08-6.08 1.36-3.04 1.44-5.12 4.96-.24.32-.32.32t-.08-.24q.08-.24.08-.32.32-.88.56-1.36.32-.48.64-1.12-1.12-2.24-1.6-4.48a28 28 0 0 1-.56-4.8q0-1.84.32-2.72t2.16-1.84a13.7 13.7 0 0 1 6.48-1.6q3.44 0 6.88.4 2.24.24 4.48.4 2.24.08 4.64-.72.4-.16.32.16a1 1 0 0 1-.24.4q-1.04 1.28-2.88 1.76t-3.92.64q-2.08.08-4 0t-3.04 0h-.48a59 59 0 0 1-1.2 3.68q-.56 1.68-1.12 3.28 1.2-.4 2.24-.56 1.12-.24 2.32-.16a34 34 0 0 1 4.64.48q2.32.4 4.48.72 2.24.24 4.24.24 2.08-.08 3.84-.96m-22.16-6.8q-.48-.08-1.52-.16-.96-.16-2.16 0a2.17 2.17 0 0 0-1.36.64 2.17 2.17 0 0 0-.64 1.36 27 27 0 0 0 .08 4.64q.24 2.16.8 4.48l.96-1.2q-.08-.96-.08-2.08t.08-2q.16-.96.32-1.52t.4-.56q.16 0 .24.4t.16.88.08.96q.08.48.08.72.08.48.08.96.08.4.16.88.4-.24.72-.48t.72-.4q.08-3.6.88-7.52m21.6 9.44q0 .24-.16.56a6.3 6.3 0 0 1-1.36 2 9.7 9.7 0 0 1-1.92 1.36 10.8 10.8 0 0 1-2.16.88q-1.04.24-1.84.24-2.8 0-5.12-.64a73 73 0 0 1-4.48-1.44l-.48-.24q-.32-.16-.4-.4-.08-.16.32-.32t.56-.16q.48-.08 1.2-.08a17 17 0 0 1 3.28 0h1.36q1.36.08 2.96.16 1.6 0 3.04-.16a20 20 0 0 0 2.8-.64q1.36-.4 2.08-1.12.24-.24.32 0m-24.88-14.4q0 .24-.56.72-.48.48-1.2 1.04-.64.56-1.28 1.04-.56.48-.72.64-.64.64-1.2 1.28-.56.56-.96 1.44-.4.72-.4.24 0-.56.08-.8.16-.64.48-1.68.4-1.12 1.44-2.16.48-.4 1.12-.8.72-.48 1.36-.72.72-.32 1.2-.4.56-.08.64.16m21.92 19.84q.08.32-.24.48-.96.8-2.72 1.2-1.68.32-3.68.48-1.92.16-3.76.16h-2.96q-2 0-4.24-.24a40 40 0 0 1-3.76-.72q-.16-.08-.48-.08-.24-.08-.24-.24t.24-.24l.48-.24a17.4 17.4 0 0 1 6.16-.8 65 65 0 0 1 6.4.48q2 .32 4 .48 2.08.16 4.32-.72.48-.16.48 0m-18.96-2.72q0 .24-.56.64-.48.32-1.12.72l-1.28.8q-.56.32-.8.48-.64.56-1.12.96a6.2 6.2 0 0 0-.96 1.04q-.4.4-.56.4h-.08v-.24q.4-1.2.8-2 .48-.8 1.6-1.68.48-.32 1.12-.64a4.5 4.5 0 0 1 1.28-.56q.64-.24 1.12-.24t.56.32m47.429-35.2q.72 4.24.88 9.28t.32 9.28q0 .24-.08.88 0 .64-.32.72-.16 0-.4-.64l-.32-.96a31 31 0 0 1-.64-2.24l-.48-2.56a54 54 0 0 1-.4-2.64 57 57 0 0 1-.24-2.48q0-.24-.16-1.36-.08-1.12-.32-2.56-.24-1.52-.56-3.2a52 52 0 0 0-.72-3.36q0 3.36-.16 6.64a66 66 0 0 0 .16 6.48q.16 2.08.48 4.08.321 1.92.72 3.92a32 32 0 0 0 1.68 5.6 35 35 0 0 0 2.64 5.28 30 30 0 0 0 3.6 4.56q2.08 2 4.48 3.2.4.16.32.4 0 .16-.32.08-3.279-.72-5.76-2.64a23.2 23.2 0 0 1-4.4-4.72 28.2 28.2 0 0 1-3.04-5.92 41 41 0 0 1-1.84-6.4l-.48-2.72a48 48 0 0 1-.4-2.72q-1.2 3.84-2.64 7.52a719 719 0 0 1-2.64 7.04q-1.28 3.36-2.24 6.48t-1.44 5.92q-.08.08-.08.16l-.16.16q-.24 0-.24-.32-.56-3.68.24-7.52a70 70 0 0 1 2.32-8q1.52-4.08 3.2-8.32a75 75 0 0 0 2.8-8.72q.72-2.72 1.04-5.76.32-3.12.16-6.08a23.5 23.5 0 0 0-1.04-5.84 18.6 18.6 0 0 0-2.32-5.12q-.399-.48-.24-.64t.48 0 .56.4q1.6 1.6 2.8 3.12 1.28 1.44 2.24 3.2a24 24 0 0 1 1.68 3.92q.72 2.16 1.28 5.12m9.68 18.64q.48-2.32.88-4.08t.88-3.36a80 80 0 0 1 1.2-3.2 55 55 0 0 1 1.76-3.68q.16-.24.48-.8.4-.64.64-.56.16 0 .08.72t-.16.96q-.24 1.04-.64 2.4-.32 1.36-.72 2.88l-.8 2.88q-.4 1.44-.64 2.48-.32 1.36-.72 3.36l-.72 4.32q-.32 2.4-.56 5.12a65 65 0 0 0-.08 5.6q-.72-.4-1.52-.96-.72-.64-1.44-1.76-1.68-2.4-2.64-5.04a48 48 0 0 1-1.44-5.6 53 53 0 0 1-.8-5.84q-.24-3.04-.56-5.92-.399-3.76-.72-7.6t-1.68-7.92q-.159-.4-.24-.4 0-.08.16-.16.24 0 .48.4 1.04 1.04 1.76 3.04.8 1.92 1.36 4.32.64 2.4 1.04 5.12.48 2.64.8 5.2.32 2.48.56 4.64.32 2.08.56 3.44.561-4.64 1.2-8.24.64-3.68 1.36-5.92.64-2 1.52-4.16a61 61 0 0 1 1.92-4.24q1.04-2.16 2.08-4.08 1.12-1.92 2.08-3.36.24-.4.48-.72t.4-.16 0 .56a6 6 0 0 1-.24.72q-1.04 3.12-2 5.6-.88 2.48-1.84 4.88a94 94 0 0 0-1.68 5.04 105 105 0 0 0-1.6 5.76q-.48 2.08-1.12 4.4a45 45 0 0 0-1.04 4.8 30.4 30.4 0 0 0-.24 4.96q.16 2.48 1.2 4.88a29 29 0 0 1 0-3.04q.081-1.76.24-3.28.24-1.6.4-2.8zm-1.6 14.72q.88.96 1.84 1.76.96.72 2.08 1.36-.639-3.6-.24-7.44a60 60 0 0 1 1.36-7.92q.96-4 2.24-8t2.48-7.84a90 90 0 0 0 2.8-11.6 78 78 0 0 0 1.28-12.08q0-.64.08-.64.24 0 .24.4.72 3.44.8 6.72a43 43 0 0 1-.32 6.4q-.4 3.12-1.12 6.24t-1.68 6.32q-1.2 4.32-2.48 8.72a188 188 0 0 0-2.32 8.56 76 76 0 0 0-1.44 8.24q-.48 4-.16 7.6 0 .32-.16.32-.159 0-.24-.16 0-.08-.08-.16-.32-.8-.4-.88 0-.08-.24-.88-.159-.64-.48-.88a3.6 3.6 0 0 0-.48-.32q-1.36-.48-2.32-.88t-2.56-2q-.64-.64-1.36-1.76a33 33 0 0 1-1.28-2.16q-.56-1.12-.8-1.92-.24-.88 0-.96.08 0 .4.32.32.24.64.64.32.32.56.72.32.4.4.48 1.44 2.16 2.96 3.68m-23.44-26.64a118 118 0 0 1 2.24-7.52q1.36-3.84 2.24-6.88.16-.4.24-.72.16-.32.32-.24.16 0 .16.4v.8q.08 5.84-1.52 11.68a169 169 0 0 1-3.6 11.52 593 593 0 0 0-2.56 7.36q-1.28 3.68-1.92 8a4 4 0 0 0-.08.48h-.16q-.08 0-.24-.56-.48-2.16 0-5.44a92 92 0 0 1 1.44-6.8 95 95 0 0 1 1.92-6.8q1.04-3.28 1.52-5.28m-1.52 17.04q1.44-4.08 3.2-8.48a225 225 0 0 1 3.68-8.48q.08-.16.4-.72.321-.56.48-.56.16.08.16.72.08.64-.08.88-.159.96-.48 2.4-.24 1.36-.64 2.88-.4 1.44-.8 2.8-.399 1.36-.72 2.32-.24.72-1.12 3.52a236 236 0 0 0-1.68 6.24q-.88 3.36-1.6 6.56-.639 3.2-.48 4.72 0 .72-.24.72-.08 0-.24-.24-.08-.32-.24-.48-.64-1.36-.88-3.28a33 33 0 0 1-.08-4q.16-2.08.48-4 .4-2 .88-3.52m35.68-37.04q.321-1.6.48-3.04.16-1.52.32-3.2 0-.16.08-.32.081-.24.24-.24.08 0 .32.4.08.16.08.32.24.8.32 1.44.16.64.16 1.36.081.72 0 1.68 0 .88-.24 2.08-.16.96-.56 2.32a38 38 0 0 1-.72 2.64q-.4 1.2-.8 2.08-.32.8-.56.72-.16 0-.16-.4 0-.48.08-.96l.16-1.12q.08-.56.08-.88zm-28.08 3.36a22 22 0 0 0-.8-2.64 9.8 9.8 0 0 0-1.12-2.4q-.32-.48-.16-.56.16 0 .48.16l.32.16q1.04.96 1.76 1.92.8.96 1.28 3.2.24.88.32 2.24.081 1.28 0 2.56 0 1.28-.16 2.16-.159.88-.48.8-.159 0-.24-.4t-.16-.88q-.08-.56-.16-1.04a5 5 0 0 1-.08-.64 130 130 0 0 0-.32-2.4 17 17 0 0 0-.48-2.24m55.276 9.52a101 101 0 0 1-2.8 8.96 139 139 0 0 1-3.36 8.8l-.4.8q-.32.56-.48.48-.24 0-.24-.64.08-.72.16-.96.08-.96.32-2.4t.48-2.96q.32-1.52.64-2.96.4-1.44.72-2.48.16-.32.48-1.6t.64-3.04q.4-1.84.8-4t.72-4.24l-.96-.24a48 48 0 0 1-1.2 5.76 89 89 0 0 1-1.68 5.84 418 418 0 0 0-1.76 5.92 121 121 0 0 0-1.6 5.92 49 49 0 0 0-.96 5.84 47 47 0 0 0-.24 6.16 32.3 32.3 0 0 0 .72 6 22 22 0 0 0 1.92 5.36q.24.56.16.56-.16 0-.24-.08l-.16-.16q-2.24-2.64-3.36-5.68a29 29 0 0 1-1.36-6.4 34.6 34.6 0 0 1 .16-6.64 65 65 0 0 1 1.12-6.56 118 118 0 0 1 3.2-11.36q1.84-5.52 3.12-10.8-4.8-.8-9.04-1.44-4.16-.72-7.76 0-.24 0-.24-.08 0-.16.08-.16a1 1 0 0 0 .24-.16q2.72-1.6 5.76-1.76 3.12-.16 6.4.32 3.36.4 6.8 1.12 3.52.64 7.04.72a21.6 21.6 0 0 0 4.48-.32q2.4-.48 4.56-1.36a15.3 15.3 0 0 0 4-2.48 12 12 0 0 0 2.96-3.6q.16-.4.32-.4v.4q-.88 3.04-2.72 5.04a15.3 15.3 0 0 1-4.24 3.12q-2.32 1.2-5.04 1.68-2.64.4-5.2.32.4 2.48 0 5.76-.32 3.28-1.04 6.64t-1.52 6.4a604 604 0 0 0-1.28 4.8q-.96 3.84-2.24 7.84a377 377 0 0 1-2.32 7.04q-.16.4-.4.72-.16.32-.32.24t-.16-.4q.08-.4.08-.8.24-6 1.76-12t3.28-12.08q.96-3.36 1.84-6.8.96-3.44 1.36-7.36a3.7 3.7 0 0 0-.72-.08h-.64q0 1.6-.16 3.12a11.3 11.3 0 0 1-.48 2.8m2.16-17.04q3.12.4 6.32.64t5.52.24q.8 0 .8.24 0 .32-.8.56-4.08 1.6-8.64 1.44a78 78 0 0 1-9.12-.88 773 773 0 0 0-5.76-.8q-2.96-.4-6.4 0-.32.08-.32-.08t.16-.24.32-.24q1.52-1.12 3.92-1.44a25.3 25.3 0 0 1 4.96-.32q2.64 0 5.04.32t4 .56m-12 2.48q3.36.48 6.8 1.2 3.52.72 6.8 1.6.16.16.64.32.56.08.56.32 0 .16-.48.24t-.72.24q-.72.16-1.84.16h-2.24l-2.24-.16a16 16 0 0 1-1.92-.24q-.56-.08-2.8-.32-2.16-.24-4.8-.32a54 54 0 0 0-5.12.08q-2.4.08-3.44.64-.32.16-.4.16h-.08q0-.32.32-.64.8-1.04 2.16-1.76 1.44-.72 2.96-1.12a15 15 0 0 1 3.04-.48q1.6-.08 2.8.08m2.64 49.52q.24 1.36.56 2.72.4 1.36.96 2.64.32.64.08.64-.16 0-.48-.16a.52.52 0 0 1-.24-.24q-1.04-1.2-1.68-2.24-.56-1.04-.96-3.36-.16-.88-.24-2.24 0-1.36.08-2.64t.24-2.16.48-.88q.08 0 .16.4.16.4.24.96.08.48.16 1.04.08.48.08.64.16 1.36.24 2.56.16 1.2.32 2.32m23.2-50.08q1.76-1.52 2.96-3.28.16-.32.32-.32.08 0 .08.56 0 .32-.08.56-.32 1.36-.72 2.16t-1.92 1.92q-.56.48-1.52.96-.96.4-1.84.72a7 7 0 0 1-1.6.4q-.64 0-.72-.32 0-.08.24-.24.24-.24.56-.48.4-.24.72-.4a3.6 3.6 0 0 1 .48-.32 14 14 0 0 0 1.52-.88 15 15 0 0 0 1.52-1.04m20.172-.8q1.6 0 3.68.64 2.079.56 3.36 1.92.879.8-.24.48a20 20 0 0 1-2.32-.48q-1.12-.4-2.48-.4-4.96-.08-7.2 2.88-2.24 2.88-2.56 7.36-.24 3.12.08 6.24.4 3.04.88 6.08t.8 6.08q.4 3.04.08 6.16-.081.88-.24 1.04-.081.16-.24-.08-.081-.24-.24-.64-.08-.48-.16-.8a90 90 0 0 0-1.2-6.4q-.72-3.28-1.36-6.56a93 93 0 0 1-1.04-6.56 34.4 34.4 0 0 1 0-6.64q.24-2.16 1.04-4 .8-1.92 2.08-3.28a9.6 9.6 0 0 1 3.2-2.24q1.839-.8 4.08-.8M728.604 50q.24-2.16 1.12-4.32a14.8 14.8 0 0 1 2.32-4 11 11 0 0 1 3.6-2.88q2.16-1.12 4.8-1.12.08 0 .4.08.4 0 .64.08.32.08.24.16 0 .08-.56.16-2.16.4-4 1.44a12.5 12.5 0 0 0-3.2 2.56 13.6 13.6 0 0 0-2.24 3.44 11.9 11.9 0 0 0-.96 3.84 31.6 31.6 0 0 0 .32 7.76q.639 3.84 1.44 7.68a95 95 0 0 1 1.44 7.76q.64 3.84.32 7.68-.16 1.52-.72 3.2t-1.52 3.12a9 9 0 0 1-2.24 2.48 6.9 6.9 0 0 1-3.04 1.2q-1.28.16-1.12-.08.24-.32.96-.72 2.88-1.6 3.92-3.76 1.119-2.16 1.44-5.36.32-3.68-.32-7.52-.56-3.84-1.36-7.68a207 207 0 0 1-1.44-7.6 33 33 0 0 1-.24-7.6m-2.16 44.32q3.36 0 5.68-1.2 2.319-1.28 3.84-3.28 1.52-2.08 2.32-4.72.8-2.72 1.04-5.6.32-3.6-.16-7.2t-1.12-7.12q-.56-3.6-1.04-7.2t-.16-7.28 2.24-5.84q2-2.16 5.92-2.16 1.36 0 3.44.48 2.16.48 3.52 1.36 1.44.96-.24.56-.96-.24-2.48-.56t-2.32-.32q-3.12 0-5.36 1.36t-2.56 4.8a28.3 28.3 0 0 0 .16 7.36q.56 3.6 1.28 7.28t1.2 7.36q.56 3.68.24 7.36-.24 3.04-1.2 5.92a17.9 17.9 0 0 1-2.72 5.2q-1.76 2.32-4.4 3.76-2.56 1.36-6.08 1.36-.96 0-2.48-.32a32 32 0 0 1-3.04-.8 23 23 0 0 1-2.88-1.28q-1.281-.8-1.92-1.68-.72-.8.48-.4 1.36.72 3.28 1.76 2 1.04 5.52 1.04m-.48-2.8q2 0 3.68-.64a22.7 22.7 0 0 0 3.44-1.68v.24q0 .72-.8 1.44-.72.64-1.84 1.2t-2.56.88q-1.36.32-2.8.32-.56 0-1.52-.16a39 39 0 0 1-2-.56q-.96-.4-1.84-.88t-1.2-1.12q-.88-.96-.56-1.04.32-.16.88.24 1.28.4 2.88 1.12 1.68.64 4.24.64m-247.753 58.699q13.965 0 25.684 3.906 11.718 3.906 21.093 5.078-5.175 18.164-.39 39.16-4.981 4.2-11.426 4.883-.782-1.855-2.832-7.715-1.953-5.957-3.809-9.765-1.758-3.809-4.98-8.692-3.126-4.883-8.399-7.715-5.176-2.929-11.914-4.004-9.863.88-15.234 6.055-5.371 5.176-5.371 13.379 0 8.398 4.297 13.867 4.296 5.371 11.132 8.106 6.934 2.637 15.235 4.687a154 154 0 0 1 16.504 4.883q8.204 2.832 15.039 7.52 6.933 4.589 11.23 13.769t4.297 22.363q0 16.016-9.277 27.539-9.278 11.524-21.875 16.504-12.598 4.981-25.781 4.981-29.004 0-57.422-12.793.586-12.598.586-15.43 0-15.82-3.028-33.984 8.79-4.2 19.629-.391 3.614 22.168 13.965 33.985 10.449 11.816 22.852 13.183 11.62-.781 17.871-7.519 6.347-6.836 6.347-17.286 0-8.789-4.101-14.843-4.102-6.153-10.84-9.473-6.738-3.418-14.648-6.152a681 681 0 0 1-15.821-5.762q-8.007-3.124-14.746-7.422-6.64-4.296-10.742-12.012-4.101-7.715-4.102-18.75 0-9.96 3.125-17.871 3.224-7.91 8.301-12.695 5.176-4.785 12.012-8.008 6.933-3.222 13.672-4.394a82 82 0 0 1 13.867-1.172m0 4.004q-8.203 0-15.918 1.953-7.714 1.856-15.039 6.152-7.227 4.297-11.621 12.598t-4.395 19.433q0 9.864 4.102 16.993 4.101 7.03 10.742 10.937 6.739 3.906 14.746 6.934a883 883 0 0 1 15.82 5.957q7.911 3.027 14.649 6.836t10.84 10.644q4.101 6.738 4.101 16.113 0 12.989-8.3 20.997t-23.536 8.007q-14.647 0-27.246-12.207-12.597-12.207-16.601-36.523-1.953-1.269-4.59 0 2.637 15.332 2.637 31.738 0 4.59-.391 12.988 24.219 11.23 46.191 11.231 18.165 0 33.594-10.742 15.43-10.84 15.43-30.274 0-11.035-4.297-18.652-4.297-7.714-11.231-12.012-6.933-4.296-15.234-7.422a458 458 0 0 0-16.504-5.859q-8.203-2.832-15.137-6.25-6.836-3.418-11.132-9.668-4.297-6.348-4.297-15.332 0-12.597 8.496-20.117t24.121-7.52q27.148 0 37.402 37.598 3.028.488 4.199-1.367-3.222-23.829-14.16-33.496-10.839-9.668-27.441-9.668m109.766 69.824h38.378q1.368-3.809 0-7.031h-38.378v-21.387q-2.442-1.074-4.883 0-3.613 6.738-8.008 11.816-4.395 4.98-7.422 7.032-2.93 1.953-8.496 5.078-.684 2.05 0 4.492h11.914v51.172q0 28.613 23.633 28.613 10.058 0 18.555-5.176 8.495-5.273 12.695-12.89-.879-2.15-3.223-2.344-9.18 8.203-17.773 8.203-16.992 0-16.992-15.43zm33.593 55.176q6.153.78 8.789 6.738-5.077 9.278-14.746 15.527-9.668 6.348-20.898 6.348-27.54 0-27.539-32.617v-47.266h-12.012q-1.464-5.175 0-10.742 5.957-3.418 9.082-5.566 3.125-2.247 7.813-7.227t8.3-12.012q9.18-3.809 21.387.391v20.215h28.418q3.125 7.226 0 14.941h-28.418v48.242q0 9.375 6.738 11.035 5.86-1.269 13.086-8.007"/><path fill="#a07553" d="M736.805 210.766q1.953 6.25-.391 11.816-12.207.587-15.234 7.422l-29.981 72.168-10.644 28.223q-6.348 16.992-12.989 23.242-6.543 6.347-16.406 6.347-8.203 0-13.183-4.98t-4.981-12.402q0-7.227 4.981-12.207t12.207-4.981q8.594 0 13.769 6.543l11.817-31.152-29.59-70.801q-2.149-5.762-16.016-7.422-2.54-5.567-.391-11.816 33.009 1.269 60.254 0 1.953 6.25-.39 11.816-5.86.39-8.008 1.856-2.051 1.367-.586 4.785l11.914 29.199 11.035-29.199q1.172-3.028-.683-4.688-1.758-1.758-8.106-1.953-2.441-5.567-.391-11.816 8.008.39 41.993 0m-3.028 3.613q-21.582.977-35.937 0-1.074 2.637 0 4.59 3.71.195 6.25.879 2.539.585 4.199 2.832 1.66 2.149.293 5.761l-20.41 53.711-20.606-51.367q-2.148-5.566 4.395-8.496 6.64-2.93 15.039-3.32.976-1.953 0-4.59-29.2 1.269-54.199 0-.976 2.637 0 4.59 13.573 1.66 16.992 9.472L680.164 301l-10.742 27.832q-3.223 8.985-7.715 14.063t-9.277 5.078q-8.008 0-8.008-8.008 0-5.176 3.808-5.957 1.368-2.247 0-4.59-4.883 0-8.105 3.223-3.125 3.32-3.125 9.179 0 6.348 4.297 10.254t10.937 3.906q8.008 0 13.282-5.566 5.273-5.567 11.328-21.387l10.547-28.418 30.175-72.168q3.809-8.887 16.211-9.472.976-1.953 0-4.59m69.239 82.129q-23.243-2.148-23.438-9.375-.976-54.102-.781-131.934-.781-1.561-3.418-2.637-13.574 6.446-28.223 8.008-.585 2.442 0 4.59 11.035.684 16.797 4.004.781 73.437-.195 117.969-.195 7.227-16.602 9.375-.976 2.44 0 4.785 22.656-.781 55.86 0 .976-2.345 0-4.785m3.515-3.613q1.66 6.054 0 11.816-37.598-.782-62.988 0-1.563-5.762 0-11.816 16.016-1.563 16.211-5.957 1.172-57.325.195-115.333-6.543-2.05-16.406-2.636-2.148-5.762 0-12.403 14.844-.78 33.203-8.789 10.644.782 15.82 6.446-.39 87.011.782 132.715.195 4.394 13.183 5.957m61.231-74.317q7.812 0 11.328 5.078 3.515 4.981 3.515 12.5 0 2.832-.976 6.446h-38.086q3.027-12.207 9.766-18.067 6.836-5.957 14.453-5.957m-25.196 30.664h53.223a32.8 32.8 0 0 0 1.563-10.058q0-11.427-6.543-19.141-6.446-7.812-20.606-7.813-18.457 0-31.055 13.379-12.597 13.38-12.597 33.985 0 21.972 12.011 33.105 12.012 11.133 28.223 11.133 12.012 0 22.266-6.445 10.351-6.543 15.137-19.629-1.368-1.563-3.809-2.149-.391.586-2.344 3.223a407 407 0 0 1-2.734 3.711q-.879 1.074-3.223 3.223-2.246 2.05-4.394 3.027-2.051.977-5.274 1.953-3.222.879-7.031.879-15.039 0-23.926-8.887-8.886-8.984-9.277-24.121 0-3.417.39-9.375m56.25 21.778q6.153 1.367 9.961 6.152-5.567 15.234-17.187 22.949-11.622 7.715-24.805 7.715-17.968 0-31.152-12.109-13.086-12.11-13.086-36.133 0-21.777 13.379-36.524 13.476-14.844 38.086-14.843 37.207 0 37.207 30.957 0 6.054-2.832 14.062h-52.442v6.348q.489 11.816 6.446 19.238 5.957 7.324 16.406 8.594 6.152-.587 10.156-4.199 4.004-3.614 9.863-12.207m-20.214-34.864q0-10.742-7.227-12.988-8.593 2.637-12.793 15.43h19.824q0-.391.098-1.172t.098-1.27m66.796 66.016a70 70 0 0 0-9.179 3.808q-4.59-2.832-6.055-5.761.196-.587.586-4.004.39-3.418.781-8.008.489-4.59.781-9.473.294-4.883.293-8.3 4.59-2.15 14.161-2.149h2.148q1.074 0 2.246.098 7.031 22.85 19.238 24.805 4.981-.782 7.618-3.614 2.734-2.93 2.734-6.543 0-2.637-1.465-4.883-1.464-2.343-3.906-4.296t-5.762-3.614a112 112 0 0 0-6.836-3.222 145 145 0 0 0-7.324-3.125 146 146 0 0 1-7.129-3.223 40 40 0 0 1-6.836-4.004 32.3 32.3 0 0 1-5.664-5.469 27.4 27.4 0 0 1-3.906-6.836q-1.368-3.711-1.367-8.007 0-4.59 1.562-9.571t5.371-9.082 10.254-6.738q6.446-2.734 16.211-2.734 10.84 0 16.016 1.171l3.613-1.171h6.641q1.269 8.3 3.027 15.527 1.855 7.227 4.102 13.476-4.2 4.2-10.157 4.2a297 297 0 0 0-6.152-7.032q-2.832-3.222-5.469-5.566-2.538-2.343-5.078-3.809-2.442-1.465-5.078-2.05-6.445 1.074-6.445 5.859 0 3.809 3.32 6.641t8.301 5.175 10.84 4.493a140 140 0 0 1 11.23 4.394 32 32 0 0 1 7.129 4.297 29.7 29.7 0 0 1 5.957 6.152c1.69 2.279 3.03 4.851 4 7.715q1.47 4.2 1.47 9.082c0 4.818-1.24 9.147-3.71 12.989-2.41 3.841-5.63 7.096-9.67 9.765q-5.958 4.003-13.672 6.153a58.4 58.4 0 0 1-15.723 2.148q-13.769 0-23.047-5.664m22.364 1.66q12.207 0 20.898-7.227 8.692-7.226 8.692-16.21 0-8.79-5.372-15.137a36.74 36.74 0 0 0-12.988-9.961 239 239 0 0 0-15.332-6.445q-7.714-3.028-13.086-7.032t-5.371-9.375q0-6.835 5.078-10.351t11.914-3.516q7.227 0 12.891 4.492t13.867 14.356q2.637 0 3.809-1.27-3.614-10.351-10.742-17.09-7.032-6.836-18.067-6.836-15.723 0-22.558 7.52-6.837 7.422-6.836 16.602 0 7.813 5.175 13.378 5.274 5.469 12.598 8.497 7.422 2.93 14.746 5.859 7.325 2.93 12.5 7.617 5.176 4.688 5.176 11.328 0 5.566-4.785 9.961t-13.379 4.395q-10.352 0-16.016-6.543-5.567-6.641-9.375-18.457-3.417 0-4.59.586 0 7.03-.683 16.113-.684 9.082-1.367 10.742.683.976 1.855 1.758 4.004-2.832 6.152-5.957 8.594 4.785 13.379 6.445 4.883 1.758 11.817 1.758"/></svg>